<?xml version="1.0" standalone="no"?>
<!DOCTYPE svg PUBLIC "-//W3C//DTD SVG 20010904//EN"
 "http://www.w3.org/TR/2001/REC-SVG-20010904/DTD/svg10.dtd">
<svg version="1.0" xmlns="http://www.w3.org/2000/svg"
 width="655.000000pt" height="655.000000pt" viewBox="0 0 655.000000 655.000000"
 preserveAspectRatio="xMidYMid meet">
<metadata>
Created by potrace 1.11, written by Peter Selinger 2001-2013
</metadata>
<g transform="translate(0.000000,655.000000) scale(0.100000,-0.100000)"
fill="#000000" stroke="none">
<path d="M4767 5915 c-381 -52 -722 -217 -958 -461 -308 -321 -395 -725 -240
-1113 94 -234 308 -463 578 -617 137 -78 377 -162 531 -186 88 -14 87 -13 79
-172 -8 -170 -61 -314 -162 -436 l-45 -55 33 -3 c45 -4 162 21 237 51 101 41
171 88 250 168 108 109 176 232 204 372 l13 62 74 12 c445 75 846 336 1049
683 266 456 134 1010 -325 1364 -102 79 -142 104 -245 156 -177 89 -370 148
-575 175 -134 18 -366 18 -498 0z"/>
<path d="M2406 5088 c-13 -18 -16 -53 -16 -175 0 -140 2 -155 20 -173 11 -11
33 -20 50 -20 17 0 39 9 50 20 18 18 20 33 20 175 0 142 -2 157 -20 175 -28
28 -84 27 -104 -2z"/>
<path d="M1770 4830 c-12 -12 -20 -33 -20 -52 0 -27 16 -48 108 -140 92 -92
113 -108 140 -108 41 0 72 31 72 72 0 26 -16 47 -108 140 -93 92 -114 108
-140 108 -19 0 -40 -8 -52 -20z"/>
<path d="M2963 4738 c-96 -96 -113 -116 -113 -143 0 -31 19 -56 51 -67 30 -11
75 21 172 119 107 110 117 134 72 178 -41 42 -59 34 -182 -87z"/>
<path d="M2200 4383 c0 -5 -11 -123 -25 -263 -14 -140 -25 -258 -25 -262 0 -4
-205 -9 -456 -10 l-456 -3 -21 -25 c-14 -16 -100 -264 -237 -683 l-214 -657
-142 0 c-78 0 -166 -5 -195 -10 -158 -30 -276 -153 -300 -312 -5 -35 -9 -204
-9 -375 l0 -313 -26 0 c-29 0 -64 -16 -81 -39 -36 -47 7 -121 72 -121 l35 0 0
-105 0 -105 179 0 178 0 7 -47 c13 -99 67 -202 147 -282 158 -156 412 -189
609 -78 115 65 226 215 245 332 4 22 9 48 12 58 4 16 63 17 1048 17 985 0
1044 -1 1048 -17 3 -10 8 -36 12 -58 9 -58 68 -172 115 -227 22 -26 68 -65
101 -87 162 -108 375 -111 550 -9 108 64 208 208 231 335 l12 63 166 0 167 0
7 43 c4 23 11 70 17 105 l11 62 44 0 c97 0 130 104 47 148 -12 7 -31 12 -43
12 -16 0 -19 5 -15 22 27 116 85 487 85 541 0 167 -109 313 -269 361 -34 10
-201 27 -459 46 -223 17 -409 33 -414 36 -4 3 -8 11 -8 18 0 10 -426 1137
-485 1285 -29 70 -37 71 -393 71 l-308 0 -23 253 c-12 138 -25 260 -27 270 -5
16 -26 17 -260 17 -140 0 -254 -3 -254 -7z m-730 -1306 l0 -602 -242 3 c-134
1 -252 4 -264 5 -20 2 -8 41 174 600 l196 597 68 0 68 0 0 -603z m980 -2 l0
-605 -405 3 -405 2 0 603 0 602 405 0 405 0 0 -605z m955 398 c43 -115 145
-383 226 -598 81 -214 147 -390 146 -391 -1 -1 -264 -4 -584 -7 l-583 -5 0
168 c0 91 3 363 7 603 l6 437 352 0 351 0 79 -207z m-2347 -2149 c105 -44 158
-162 117 -262 -65 -154 -277 -170 -361 -26 -95 162 72 360 244 288z m3154 -20
c152 -106 102 -334 -80 -368 -79 -14 -178 40 -213 118 -82 180 133 363 293
250z"/>
<path d="M1502 4187 c-29 -30 -28 -62 3 -92 23 -24 28 -25 175 -25 147 0 152
1 175 25 30 29 32 64 5 93 -20 21 -29 22 -179 22 -152 0 -158 -1 -179 -23z"/>
<path d="M3073 4198 c-30 -14 -44 -59 -29 -89 21 -43 50 -50 202 -47 123 3
145 6 163 22 31 28 28 79 -5 105 -24 19 -40 21 -168 20 -77 0 -151 -5 -163
-11z"/>
</g>
</svg>
